<?xml version="1.0" encoding="UTF-8"?>
<!DOCTYPE svg PUBLIC "-//W3C//DTD SVG 1.1//EN" "http://www.w3.org/Graphics/SVG/1.1/DTD/svg11.dtd">
<svg xmlns="http://www.w3.org/2000/svg" version="1.1" width="200px" height="200px" style="shape-rendering:geometricPrecision; text-rendering:geometricPrecision; image-rendering:optimizeQuality; fill-rule:evenodd; clip-rule:evenodd" xmlns:xlink="http://www.w3.org/1999/xlink">
<g><path style="opacity:1" fill="#fdfdfd" d="M -0.5,-0.5 C 66.1667,-0.5 132.833,-0.5 199.5,-0.5C 199.5,66.1667 199.5,132.833 199.5,199.5C 132.833,199.5 66.1667,199.5 -0.5,199.5C -0.5,132.833 -0.5,66.1667 -0.5,-0.5 Z"/></g>
<g><path style="opacity:1" fill="#1c1c1c" d="M 78.5,19.5 C 79.3764,19.3691 80.0431,19.7025 80.5,20.5C 79.7542,21.7362 79.4208,23.0695 79.5,24.5C 82.7732,24.4706 83.4398,25.8039 81.5,28.5C 82.3005,31.5683 83.3005,34.5683 84.5,37.5C 83.675,38.3857 82.675,38.719 81.5,38.5C 81.1654,34.137 79.4988,30.4703 76.5,27.5C 77.8333,25.8333 77.8333,24.1667 76.5,22.5C 77.1925,21.4822 77.8592,20.4822 78.5,19.5 Z"/></g>
<g><path style="opacity:1" fill="#1b1b1b" d="M 101.5,22.5 C 107.905,21.4062 110.238,24.0729 108.5,30.5C 106.5,30.5 104.5,30.5 102.5,30.5C 102.5,31.8333 102.5,33.1667 102.5,34.5C 104.143,34.5198 105.476,33.8532 106.5,32.5C 107.731,33.6507 107.731,34.8173 106.5,36C 104.231,36.7581 102.064,36.5914 100,35.5C 99.1509,30.9735 99.6509,26.6402 101.5,22.5 Z"/></g>
<g><path style="opacity:1" fill="#1a1a1a" d="M 92.5,22.5 C 91.1731,26.7968 91.1731,31.4635 92.5,36.5C 91.5,36.5 90.5,36.5 89.5,36.5C 89.5429,33.1326 89.2096,29.7992 88.5,26.5C 88.8333,25.5 89.1667,24.5 89.5,23.5C 90.9217,24.7768 91.9217,24.4435 92.5,22.5 Z"/></g>
<g><path style="opacity:1" fill="#eeeeee" d="M 102.5,24.5 C 103.5,24.5 104.5,24.5 105.5,24.5C 105.5,25.8333 105.5,27.1667 105.5,28.5C 104.5,28.5 103.5,28.5 102.5,28.5C 102.5,27.1667 102.5,25.8333 102.5,24.5 Z"/></g>
<g><path style="opacity:1" fill="#161616" d="M 116.5,25.5 C 118.482,25.9954 120.482,26.4954 122.5,27C 123.022,27.5613 123.355,28.228 123.5,29C 122.229,33.0389 120.562,36.8723 118.5,40.5C 118.167,40 117.833,39.5 117.5,39C 118.5,36 119.5,33 120.5,30C 120.37,28.9412 119.87,28.1079 119,27.5C 117.455,31.298 115.621,34.9647 113.5,38.5C 113.361,34.0444 114.361,29.711 116.5,25.5 Z"/></g>
<g><path style="opacity:1" fill="#1c1c1c" d="M 130.5,32.5 C 133.792,32.1196 136.125,33.4529 137.5,36.5C 136.793,39.4393 135.46,39.9393 133.5,38C 134.392,34.5566 133.558,34.0566 131,36.5C 129.634,38.3703 128.467,40.3703 127.5,42.5C 128.651,43.731 129.817,43.731 131,42.5C 132.61,44.0268 132.277,45.3601 130,46.5C 127.259,46.0535 125.425,44.5535 124.5,42C 126.629,38.9061 128.629,35.7394 130.5,32.5 Z"/></g>
<g><path style="opacity:1" fill="#1d1d1d" d="M 62.5,33.5 C 63.3764,33.3691 64.0431,33.7025 64.5,34.5C 67.2983,39.4092 69.4649,44.4092 71,49.5C 68.3556,52.3296 67.5223,51.9963 68.5,48.5C 64.3562,45.5237 60.3562,42.357 56.5,39C 57.0253,38.3076 57.6919,37.8076 58.5,37.5C 66.079,44.4207 67.079,43.5874 61.5,35C 62.056,34.6174 62.3893,34.1174 62.5,33.5 Z"/></g>
<g><path style="opacity:1" fill="#1e1e1e" d="M 46.5,40.5 C 52.2254,44.0462 57.5588,48.2129 62.5,53C 61.7248,54.2295 60.7248,54.5628 59.5,54C 55.3333,50.5 51.1667,47 47,43.5C 46.5172,42.552 46.3505,41.552 46.5,40.5 Z"/></g>
<g><path style="opacity:1" fill="#181818" d="M 147.5,38.5 C 148.376,38.3691 149.043,38.7025 149.5,39.5C 148.352,41.1487 147.019,42.6487 145.5,44C 148.032,44.6122 148.865,46.1122 148,48.5C 145.297,51.538 142.297,54.2046 139,56.5C 138.308,55.9747 137.808,55.3081 137.5,54.5C 140.972,52.0391 143.639,49.0391 145.5,45.5C 142.213,46.264 139.546,48.0973 137.5,51C 136.365,51.7494 135.365,51.5827 134.5,50.5C 138.854,46.4781 143.187,42.4781 147.5,38.5 Z"/></g>
<g><path style="opacity:1" fill="#717171" d="M 99.5,47.5 C 100.833,47.5 102.167,47.5 103.5,47.5C 103.663,49.8568 103.497,52.1902 103,54.5C 102.259,53.3595 101.425,53.3595 100.5,54.5C 99.5258,52.2573 99.1924,49.924 99.5,47.5 Z"/></g>
<g><path style="opacity:1" fill="#242424" d="M 40.5,49.5 C 43.5476,49.494 44.0476,50.494 42,52.5C 40.9614,51.7562 40.4614,50.7562 40.5,49.5 Z"/></g>
<g><path style="opacity:1" fill="#131313" d="M 45.5,52.5 C 50.0928,53.7971 54.0928,56.1304 57.5,59.5C 55.477,60.041 53.477,59.541 51.5,58C 49.9991,56.7485 48.3325,55.7485 46.5,55C 45.7476,54.3292 45.4142,53.4959 45.5,52.5 Z"/></g>
<g><path style="opacity:1" fill="#3a3a3a" d="M 95.5,47.5 C 98.7973,47.3287 99.1306,47.9954 96.5,49.5C 97.186,51.0639 97.0194,52.7306 96,54.5C 95.5034,52.1902 95.3367,49.8568 95.5,47.5 Z"/></g>
<g><path style="opacity:1" fill="#ea292b" d="M 122.5,81.5 C 116.07,76.5748 110.07,71.0748 104.5,65C 101.769,65.2212 99.1022,65.0545 96.5,64.5C 94.7338,65.0909 93.0672,65.9242 91.5,67C 86.9591,73.0418 81.6258,78.2084 75.5,82.5C 76.8498,68.3177 84.6831,60.651 99,59.5C 112.175,61.1759 120.008,68.5093 122.5,81.5 Z"/></g>
<g><path style="opacity:1" fill="#1c1c1c" d="M 151.5,54.5 C 153.355,54.272 154.188,54.9387 154,56.5C 143.663,62.8879 144.163,63.8879 155.5,59.5C 156.5,59.8333 157.167,60.5 157.5,61.5C 152.31,63.0893 147.143,64.756 142,66.5C 139.474,65.8725 138.641,64.5391 139.5,62.5C 140.167,62.8333 140.833,63.1667 141.5,63.5C 144.906,60.483 148.24,57.483 151.5,54.5 Z"/></g>
<g><path style="opacity:1" fill="#171717" d="M 40.5,60.5 C 44.5151,61.8948 48.5151,63.3948 52.5,65C 52.9574,65.414 53.2907,65.914 53.5,66.5C 52.846,68.1151 52.346,69.7818 52,71.5C 51.4387,72.0219 50.772,72.3552 50,72.5C 46.9103,71.1366 43.7436,69.97 40.5,69C 39.7089,66.2501 39.7089,63.4168 40.5,60.5 Z"/></g>
<g><path style="opacity:1" fill="#dcdcdc" d="M 41.5,64.5 C 44.8774,64.9595 48.2107,65.6261 51.5,66.5C 51.5,67.5 51.5,68.5 51.5,69.5C 48.3527,69.2634 45.3527,68.4301 42.5,67C 41.7476,66.3292 41.4142,65.4959 41.5,64.5 Z"/></g>
<g><path style="opacity:1" fill="#1c1c1c" d="M 161.5,66.5 C 163.048,66.8212 163.715,67.8212 163.5,69.5C 161.401,70.2309 159.401,70.2309 157.5,69.5C 158.624,68.1408 159.958,67.1408 161.5,66.5 Z"/></g>
<g><path style="opacity:1" fill="#382424" d="M 122.5,81.5 C 123.716,83.4509 125.382,84.9509 127.5,86C 132.167,88.6667 136.833,91.3333 141.5,94C 140.5,94.6667 139.5,94.6667 138.5,94C 132.974,91.0737 127.641,87.9071 122.5,84.5C 119.125,83.7552 115.792,82.7552 112.5,81.5C 111.548,83.0453 111.215,84.712 111.5,86.5C 108.123,86.3103 105.456,84.8103 103.5,82C 102.167,81.8333 100.833,81.6667 99.5,81.5C 94.9383,82.7685 90.605,84.4351 86.5,86.5C 86.5,85.1667 86.5,83.8333 86.5,82.5C 83.0901,82.4571 79.7568,82.9571 76.5,84C 75.944,84.3826 75.6107,84.8826 75.5,85.5C 70.5546,88.3095 65.5546,91.1428 60.5,94C 59.5,94.6667 58.5,94.6667 57.5,94C 63.7341,90.3918 69.7341,86.5585 75.5,82.5C 81.6258,78.2084 86.9591,73.0418 91.5,67C 93.0672,65.9242 94.7338,65.0909 96.5,64.5C 99.1022,65.0545 101.769,65.2212 104.5,65C 110.07,71.0748 116.07,76.5748 122.5,81.5 Z"/></g>
<g><path style="opacity:1" fill="#e31c24" d="M 94.5,66.5 C 97.8281,67.6463 101.161,67.8129 104.5,67C 108.132,71.6337 112.132,75.967 116.5,80C 114.527,80.4955 112.527,80.6621 110.5,80.5C 110.762,81.9778 110.429,83.3112 109.5,84.5C 102.8,77.9206 96.1335,77.9206 89.5,84.5C 88.5713,83.3112 88.238,81.9778 88.5,80.5C 86.4727,80.6621 84.4727,80.4955 82.5,80C 86.6249,75.5624 90.6249,71.0624 94.5,66.5 Z"/></g>
<g><path style="opacity:1" fill="#171717" d="M 31.5,75.5 C 37.8455,76.0576 44.1789,76.7243 50.5,77.5C 50.7564,79.7925 50.4231,81.9592 49.5,84C 45.5,84.6667 41.5,84.6667 37.5,84C 36.8971,82.1746 36.2304,80.3413 35.5,78.5C 33.517,78.1852 32.1837,77.1852 31.5,75.5 Z"/></g>
<g><path style="opacity:1" fill="#212121" d="M 156.5,76.5 C 161.575,76.1803 163.408,78.5137 162,83.5C 160.989,84.3366 159.822,84.67 158.5,84.5C 158.48,82.857 159.147,81.5237 160.5,80.5C 159.311,79.5713 157.978,79.238 156.5,79.5C 156.938,85.3133 154.438,86.98 149,84.5C 148.505,82.5273 148.338,80.5273 148.5,78.5C 152.161,78.4257 152.828,79.4257 150.5,81.5C 151.689,82.4287 153.022,82.762 154.5,82.5C 154.259,80.1137 154.925,78.1137 156.5,76.5 Z"/></g>
<g><path style="opacity:1" fill="#dddddd" d="M 38.5,78.5 C 41.7861,79.2071 45.1194,79.5405 48.5,79.5C 48.5,80.5 48.5,81.5 48.5,82.5C 45.1194,82.5405 41.7861,82.2071 38.5,81.5C 38.5,80.5 38.5,79.5 38.5,78.5 Z"/></g>
<g><path style="opacity:1" fill="#e81f25" d="M 122.5,84.5 C 121.528,92.1131 118.194,98.4465 112.5,103.5C 107.483,98.4825 102.817,93.1492 98.5,87.5C 94.4884,92.8403 90.155,97.8403 85.5,102.5C 83.2843,101.797 81.451,100.464 80,98.5C 77.3979,94.5262 75.8979,90.1929 75.5,85.5C 75.6107,84.8826 75.944,84.3826 76.5,84C 79.7568,82.9571 83.0901,82.4571 86.5,82.5C 86.5,83.8333 86.5,85.1667 86.5,86.5C 90.605,84.4351 94.9383,82.7685 99.5,81.5C 100.833,81.6667 102.167,81.8333 103.5,82C 105.456,84.8103 108.123,86.3103 111.5,86.5C 111.215,84.712 111.548,83.0453 112.5,81.5C 115.792,82.7552 119.125,83.7552 122.5,84.5 Z"/></g>
<g><path style="opacity:1" fill="#362d2e" d="M 112.5,103.5 C 116.72,110.052 122.72,113.052 130.5,112.5C 130.338,110.473 130.505,108.473 131,106.5C 133.876,111.605 132.376,114.272 126.5,114.5C 123.567,114.534 120.9,113.701 118.5,112C 115.469,109.492 112.469,106.992 109.5,104.5C 105.85,99.8467 102.184,95.1801 98.5,90.5C 94.8096,95.1855 91.1429,99.8521 87.5,104.5C 82.8169,109.519 77.1502,112.852 70.5,114.5C 64.6173,114.19 63.1173,111.523 66,106.5C 66.0912,112.179 68.9246,114.012 74.5,112C 78.9494,109.716 82.616,106.549 85.5,102.5C 90.155,97.8403 94.4884,92.8403 98.5,87.5C 102.817,93.1492 107.483,98.4825 112.5,103.5 Z"/></g>
<g><path style="opacity:1" fill="#e9282a" d="M 109.5,104.5 C 102.167,108.5 94.8333,108.5 87.5,104.5C 91.1429,99.8521 94.8096,95.1855 98.5,90.5C 102.184,95.1801 105.85,99.8467 109.5,104.5 Z"/></g>
<g><path style="opacity:1" fill="#302c2d" d="M 93.5,116.5 C 94.5,116.5 95.5,116.5 96.5,116.5C 96.5,117.5 96.5,118.5 96.5,119.5C 95.5,119.5 94.5,119.5 93.5,119.5C 93.5,118.5 93.5,117.5 93.5,116.5 Z"/></g>
<g><path style="opacity:1" fill="#747171" d="M 98.5,116.5 C 99.8333,116.5 101.167,116.5 102.5,116.5C 102.5,117.833 102.5,119.167 102.5,120.5C 101.167,120.5 99.8333,120.5 98.5,120.5C 98.5,119.167 98.5,117.833 98.5,116.5 Z"/></g>
<g><path style="opacity:1" fill="#131313" d="M 32.5,120.5 C 40.1755,120.456 40.3422,121.123 33,122.5C 32.5357,121.906 32.369,121.239 32.5,120.5 Z"/></g>
<g><path style="opacity:1" fill="#3e3e3e" d="M 162.5,120.5 C 164.078,121.066 165.412,122.066 166.5,123.5C 165.311,124.429 163.978,124.762 162.5,124.5C 162.5,123.167 162.5,121.833 162.5,120.5 Z"/></g>
<g><path style="opacity:1" fill="#2d2d2d" d="M 33.5,129.5 C 36.5,129.167 37.8333,130.5 37.5,133.5C 36.1667,133.5 34.8333,133.5 33.5,133.5C 33.5,132.167 33.5,130.833 33.5,129.5 Z"/></g>
<g><path style="opacity:1" fill="#232323" d="M 162.5,126.5 C 165.179,126.525 166.512,127.858 166.5,130.5C 165.167,130.5 163.833,130.5 162.5,130.5C 162.5,129.167 162.5,127.833 162.5,126.5 Z"/></g>
<g><path style="opacity:1" fill="#1b1b1b" d="M 71.5,119.5 C 72.4872,124.305 72.8205,129.305 72.5,134.5C 89.5,134.5 106.5,134.5 123.5,134.5C 124.167,114.5 124.833,114.5 125.5,134.5C 127.833,134.5 130.167,134.5 132.5,134.5C 132.5,135.5 132.5,136.5 132.5,137.5C 110.5,137.5 88.5,137.5 66.5,137.5C 66.5,136.5 66.5,135.5 66.5,134.5C 68.1667,134.5 69.8333,134.5 71.5,134.5C 71.5,129.5 71.5,124.5 71.5,119.5 Z"/></g>
<g><path style="opacity:1" fill="#636060" d="M 98.5,121.5 C 99.8333,121.5 101.167,121.5 102.5,121.5C 102.5,122.833 102.5,124.167 102.5,125.5C 101.167,125.5 99.8333,125.5 98.5,125.5C 98.5,124.167 98.5,122.833 98.5,121.5 Z"/></g>
<g><path style="opacity:1" fill="#2f2c2c" d="M 93.5,122.5 C 94.5,122.5 95.5,122.5 96.5,122.5C 96.5,123.5 96.5,124.5 96.5,125.5C 95.5,125.5 94.5,125.5 93.5,125.5C 93.5,124.5 93.5,123.5 93.5,122.5 Z"/></g>
<g><path style="opacity:1" fill="#2e2e2e" d="M 161.5,133.5 C 165.138,132.737 166.638,134.07 166,137.5C 165.667,136.833 165.333,136.167 165,135.5C 164.275,137.158 163.108,137.658 161.5,137C 160.316,135.855 160.316,134.688 161.5,133.5 Z"/></g>
<g><path style="opacity:1" fill="#252525" d="M 35.5,135.5 C 36.5,135.5 37.5,135.5 38.5,135.5C 38.6678,138.684 37.3345,139.184 34.5,137C 35.056,136.617 35.3893,136.117 35.5,135.5 Z"/></g>
<g><path style="opacity:1" fill="#1b1b1b" d="M 38.5,141.5 C 41.9067,141.125 42.4067,142.125 40,144.5C 39,143.167 38,143.167 37,144.5C 36.7613,143.212 37.2613,142.212 38.5,141.5 Z"/></g>
<g><path style="opacity:1" fill="#2a2a2a" d="M 158.5,140.5 C 160.199,140.34 161.866,140.506 163.5,141C 160.332,141.582 159.999,142.582 162.5,144C 159.51,144.847 158.176,143.68 158.5,140.5 Z"/></g>
<g><path style="opacity:1" fill="#595959" d="M 95.5,143.5 C 96.5,143.5 97.5,143.5 98.5,143.5C 98.6633,145.857 98.4966,148.19 98,150.5C 97.586,150.957 97.086,151.291 96.5,151.5C 95.52,148.914 95.1866,146.247 95.5,143.5 Z"/></g>
<g><path style="opacity:1" fill="#676767" d="M 90.5,143.5 C 92.2517,143.418 93.2517,144.251 93.5,146C 92.3047,147.533 92.3047,149.033 93.5,150.5C 92.675,151.386 91.675,151.719 90.5,151.5C 91.8333,148.833 91.8333,146.167 90.5,143.5 Z"/></g>
<g><path style="opacity:1" fill="#676767" d="M 100.5,143.5 C 102.252,143.418 103.252,144.251 103.5,146C 102.305,147.533 102.305,149.033 103.5,150.5C 102.675,151.386 101.675,151.719 100.5,151.5C 101.833,148.833 101.833,146.167 100.5,143.5 Z"/></g>
<g><path style="opacity:1" fill="#747474" d="M 106.5,143.5 C 108.379,145.915 108.713,148.582 107.5,151.5C 106.5,150.5 105.5,149.5 104.5,148.5C 105.456,146.925 106.123,145.258 106.5,143.5 Z"/></g>
<g><path style="opacity:1" fill="#1e1e1e" d="M 156.5,146.5 C 160.905,146.7 161.405,148.033 158,150.5C 155.5,149.842 155,148.509 156.5,146.5 Z"/></g>
<g><path style="opacity:1" fill="#242424" d="M 41.5,150.5 C 47.8654,150.561 48.5321,151.894 43.5,154.5C 41.8888,153.68 41.2222,152.346 41.5,150.5 Z"/></g>
<g><path style="opacity:1" fill="#2b2b2b" d="M 153.5,151.5 C 154.249,152.531 154.915,153.698 155.5,155C 152.668,155.174 152.001,154.007 153.5,151.5 Z"/></g>
<g><path style="opacity:1" fill="#2b2b2b" d="M 147.5,155.5 C 148.833,155.5 150.167,155.5 151.5,155.5C 153.406,159.554 152.406,160.388 148.5,158C 147.748,157.329 147.414,156.496 147.5,155.5 Z"/></g>
<g><path style="opacity:1" fill="#2d2d2d" d="M 51.5,156.5 C 53.9239,159.068 53.2573,161.068 49.5,162.5C 48.5713,161.311 48.238,159.978 48.5,158.5C 50.1788,158.715 51.1788,158.048 51.5,156.5 Z"/></g>
<g><path style="opacity:1" fill="#2b2b2b" d="M 144.5,158.5 C 145.968,159.806 147.301,161.306 148.5,163C 147.975,163.692 147.308,164.192 146.5,164.5C 144.376,162.799 143.709,160.799 144.5,158.5 Z"/></g>
<g><path style="opacity:1" fill="#2f2f2f" d="M 54.5,161.5 C 55.5,161.5 56.5,161.5 57.5,161.5C 57.321,163.606 56.321,165.272 54.5,166.5C 53.9478,164.997 53.9478,163.331 54.5,161.5 Z"/></g>
<g><path style="opacity:1" fill="#313131" d="M 59.5,165.5 C 60.4734,165.987 61.4734,166.487 62.5,167C 60.9238,167.44 59.5904,168.273 58.5,169.5C 58.1667,169.167 57.8333,168.833 57.5,168.5C 58.1925,167.482 58.8592,166.482 59.5,165.5 Z"/></g>
<g><path style="opacity:1" fill="#101010" d="M 137.5,166.5 C 138.627,167.122 139.627,167.955 140.5,169C 138.511,169.519 137.511,168.686 137.5,166.5 Z"/></g>
<g><path style="opacity:1" fill="#3f3f3f" d="M 63.5,168.5 C 67.7895,168.744 68.4561,170.411 65.5,173.5C 63.7826,172.332 63.1159,170.665 63.5,168.5 Z"/></g>
<g><path style="opacity:1" fill="#121212" d="M 77.5,171.5 C 76.5,172.833 75.5,174.167 74.5,175.5C 73.388,175.514 73.2213,174.514 74,172.5C 75.0113,171.663 76.1779,171.33 77.5,171.5 Z"/></g>
<g><path style="opacity:1" fill="#383838" d="M 127.5,168.5 C 130.313,169.446 131.646,171.446 131.5,174.5C 130.167,174.5 128.833,174.5 127.5,174.5C 128.38,172.389 128.38,170.389 127.5,168.5 Z"/></g>
<g><path style="opacity:1" fill="#696969" d="M 77.5,171.5 C 78.5701,173.973 77.5701,175.307 74.5,175.5C 75.5,174.167 76.5,172.833 77.5,171.5 Z"/></g>
<g><path style="opacity:1" fill="#3c3c3c" d="M 80.5,174.5 C 81.675,174.281 82.675,174.614 83.5,175.5C 80.3546,179.66 79.3546,179.326 80.5,174.5 Z"/></g>
<g><path style="opacity:1" fill="#393939" d="M 118.5,173.5 C 121.647,174.755 121.98,176.421 119.5,178.5C 117.576,177.035 117.243,175.368 118.5,173.5 Z"/></g>
<g><path style="opacity:1" fill="#424242" d="M 86.5,175.5 C 87.5,175.5 88.5,175.5 89.5,175.5C 89.5,176.833 89.5,178.167 89.5,179.5C 88.1667,179.5 86.8333,179.5 85.5,179.5C 85.4326,178.041 85.7659,176.708 86.5,175.5 Z"/></g>
<g><path style="opacity:1" fill="#353535" d="M 92.5,176.5 C 93.8333,176.5 95.1667,176.5 96.5,176.5C 96.5432,180.893 96.0432,181.226 95,177.5C 93.5057,181.304 92.6724,180.971 92.5,176.5 Z"/></g>
<g><path style="opacity:1" fill="#222222" d="M 100.5,176.5 C 103.797,176.329 104.131,176.995 101.5,178.5C 102.025,179.192 102.692,179.692 103.5,180C 102.874,180.75 102.374,181.584 102,182.5C 99.9599,180.719 99.4599,178.719 100.5,176.5 Z"/></g>
<g><path style="opacity:1" fill="#202020" d="M 107.5,175.5 C 108.5,175.5 109.5,175.5 110.5,175.5C 110.5,176.833 110.5,178.167 110.5,179.5C 109.167,179.5 107.833,179.5 106.5,179.5C 106.433,178.041 106.766,176.708 107.5,175.5 Z"/></g>
<g><path style="opacity:1" fill="#5a5a5a" d="M 113.5,175.5 C 115.088,176.635 115.421,177.969 114.5,179.5C 113.571,178.311 113.238,176.978 113.5,175.5 Z"/></g>
</svg>
