<?xml version="1.0" encoding="UTF-8"?>
<!DOCTYPE svg PUBLIC "-//W3C//DTD SVG 1.1//EN" "http://www.w3.org/Graphics/SVG/1.1/DTD/svg11.dtd">
<svg xmlns="http://www.w3.org/2000/svg" version="1.1" width="200px" height="200px" style="shape-rendering:geometricPrecision; text-rendering:geometricPrecision; image-rendering:optimizeQuality; fill-rule:evenodd; clip-rule:evenodd" xmlns:xlink="http://www.w3.org/1999/xlink">
<g><path style="opacity:1" fill="#3f3f3f" d="M 78.5,19.5 C 79.5,19.5 80.5,19.5 81.5,19.5C 81.6399,21.1238 80.9733,22.2904 79.5,23C 80.8333,24 82.1667,25 83.5,26C 82.6433,26.6891 81.9767,27.5224 81.5,28.5C 83.1167,32.014 84.1167,35.6807 84.5,39.5C 83.325,39.719 82.325,39.3857 81.5,38.5C 79.827,33.8128 78.1603,29.1461 76.5,24.5C 76.7245,22.5453 77.3911,20.8787 78.5,19.5 Z"/></g>
<g><path style="opacity:1" fill="#2a2a2a" d="M 100.5,22.5 C 108.23,21.1428 110.563,24.1428 107.5,31.5C 105.929,30.6906 104.262,30.3573 102.5,30.5C 102.279,34.7954 103.612,35.4621 106.5,32.5C 107.167,32.6667 107.833,32.8333 108.5,33C 107.842,34.9045 106.675,36.4045 105,37.5C 103.301,36.5939 101.467,36.2606 99.5,36.5C 99.2834,31.7697 99.6167,27.1031 100.5,22.5 Z"/></g>
<g><path style="opacity:1" fill="#2b2b2b" d="M 93.5,22.5 C 93.4431,23.609 93.1098,24.609 92.5,25.5C 92.3352,29.2565 92.3352,32.9232 92.5,36.5C 91.1001,35.9002 90.1001,34.9002 89.5,33.5C 88.6561,29.9009 88.3227,26.2343 88.5,22.5C 90.1667,22.5 91.8333,22.5 93.5,22.5 Z"/></g>
<g><path style="opacity:1" fill="#bebebe" d="M 93.5,22.5 C 94.8852,23.9473 94.5518,24.9473 92.5,25.5C 93.1098,24.609 93.4431,23.609 93.5,22.5 Z"/></g>
<g><path style="opacity:1" fill="#eeeeee" d="M 102.5,24.5 C 103.5,24.5 104.5,24.5 105.5,24.5C 105.5,25.8333 105.5,27.1667 105.5,28.5C 104.5,28.5 103.5,28.5 102.5,28.5C 102.5,27.1667 102.5,25.8333 102.5,24.5 Z"/></g>
<g><path style="opacity:1" fill="#3c3c3c" d="M 116.5,24.5 C 119.83,24.6422 122.163,26.1422 123.5,29C 122.392,32.8212 121.392,36.6545 120.5,40.5C 119.022,40.762 117.689,40.4287 116.5,39.5C 117.833,36.1667 119.167,32.8333 120.5,29.5C 120.167,29.1667 119.833,28.8333 119.5,28.5C 117.346,31.4323 115.846,34.7657 115,38.5C 113.757,39.3363 112.59,39.003 111.5,37.5C 113.371,33.2164 115.038,28.883 116.5,24.5 Z"/></g>
<g><path style="opacity:1" fill="#353535" d="M 131.5,31.5 C 134.341,32.2414 136.341,33.9081 137.5,36.5C 136.771,39.8757 135.438,40.2091 133.5,37.5C 133.709,36.914 134.043,36.414 134.5,36C 133.365,35.2506 132.365,35.4173 131.5,36.5C 130.289,38.4219 128.956,40.2552 127.5,42C 129.429,42.3501 131.429,43.0168 133.5,44C 129.642,47.6203 126.642,46.9536 124.5,42C 126.217,38.0579 128.551,34.5579 131.5,31.5 Z"/></g>
<g><path style="opacity:1" fill="#353535" d="M 63.5,41.5 C 64.0024,43.0847 65.0024,43.5847 66.5,43C 65.9341,42.0053 65.2674,41.172 64.5,40.5C 62.1498,38.3396 61.4831,35.8396 62.5,33C 63.3317,32.3123 63.9984,32.479 64.5,33.5C 66.6667,37.8333 68.8333,42.1667 71,46.5C 72.2493,50.3962 71.0826,51.7296 67.5,50.5C 67.8333,49.8333 68.1667,49.1667 68.5,48.5C 64.5296,45.6988 60.6963,42.6988 57,39.5C 56.4372,38.2752 56.7705,37.2752 58,36.5C 60.1906,37.8334 62.024,39.5 63.5,41.5 Z"/></g>
<g><path style="opacity:1" fill="#8a8a8a" d="M 89.5,33.5 C 90.1001,34.9002 91.1001,35.9002 92.5,36.5C 91.791,37.404 90.791,37.7373 89.5,37.5C 89.5,36.1667 89.5,34.8333 89.5,33.5 Z"/></g>
<g><path style="opacity:1" fill="#373737" d="M 46.5,40.5 C 52.1316,43.9952 57.4649,47.9952 62.5,52.5C 61.9653,54.1013 60.9653,54.6013 59.5,54C 54.9788,49.9777 50.3121,46.1444 45.5,42.5C 45.8627,41.8165 46.1961,41.1499 46.5,40.5 Z"/></g>
<g><path style="opacity:1" fill="#ababab" d="M 64.5,40.5 C 65.2674,41.172 65.9341,42.0053 66.5,43C 65.0024,43.5847 64.0024,43.0847 63.5,41.5C 64.1667,41.5 64.5,41.1667 64.5,40.5 Z"/></g>
<g><path style="opacity:1" fill="#383838" d="M 147.5,37.5 C 148.627,38.1217 149.627,38.955 150.5,40C 149.167,41.3333 147.833,42.6667 146.5,44C 148.325,45.4659 148.825,47.2992 148,49.5C 144.844,52.5149 141.344,54.8482 137.5,56.5C 137.351,55.448 137.517,54.448 138,53.5C 140.827,51.5055 143.327,49.1722 145.5,46.5C 144.998,45.479 144.332,45.3123 143.5,46C 141.017,48.4062 138.35,50.5729 135.5,52.5C 133.899,51.9653 133.399,50.9653 134,49.5C 138.694,45.6346 143.194,41.6346 147.5,37.5 Z"/></g>
<g><path style="opacity:1" fill="#707070" d="M 94.5,47.5 C 95.8734,47.3433 97.2068,47.51 98.5,48C 95.972,49.0174 95.972,50.1841 98.5,51.5C 97.273,52.5904 96.4396,53.9238 96,55.5C 94.6253,53.0632 94.1253,50.3965 94.5,47.5 Z"/></g>
<g><path style="opacity:1" fill="#888888" d="M 103.5,48.5 C 102.548,49.452 101.548,50.452 100.5,51.5C 101.425,52.5624 102.425,52.5624 103.5,51.5C 103.657,52.8734 103.49,54.2068 103,55.5C 102.259,54.3595 101.425,54.3595 100.5,55.5C 99.52,52.9135 99.1866,50.2469 99.5,47.5C 101.099,47.2322 102.432,47.5655 103.5,48.5 Z"/></g>
<g><path style="opacity:1" fill="#5b5b5b" d="M 40.5,48.5 C 42.9118,48.6941 43.9118,50.0274 43.5,52.5C 40.0136,52.7047 39.0136,51.3714 40.5,48.5 Z"/></g>
<g><path style="opacity:1" fill="#303030" d="M 103.5,48.5 C 103.5,49.5 103.5,50.5 103.5,51.5C 102.425,52.5624 101.425,52.5624 100.5,51.5C 101.548,50.452 102.548,49.452 103.5,48.5 Z"/></g>
<g><path style="opacity:1" fill="#3f3f3f" d="M 45.5,51.5 C 50.1051,53.4711 54.4385,55.9711 58.5,59C 57.8742,59.7504 57.3742,60.5838 57,61.5C 53.0856,59.4599 49.2522,57.2933 45.5,55C 44.3157,53.8545 44.3157,52.6879 45.5,51.5 Z"/></g>
<g><path style="opacity:1" fill="#ec3331" d="M 122.5,81.5 C 116.07,76.5748 110.07,71.0748 104.5,65C 101.769,65.2212 99.1022,65.0545 96.5,64.5C 94.7338,65.0909 93.0672,65.9242 91.5,67C 86.6262,73.3747 80.9595,78.8747 74.5,83.5C 77.054,66.1089 87.054,58.2755 104.5,60C 115.426,63.0886 121.426,70.2553 122.5,81.5 Z"/></g>
<g><path style="opacity:1" fill="#373737" d="M 152.5,53.5 C 153.586,53.62 154.253,54.2867 154.5,55.5C 153.002,57.8292 151.002,59.6625 148.5,61C 151.454,60.6843 154.454,60.1843 157.5,59.5C 157.191,62.3455 155.525,63.8455 152.5,64C 149.018,64.9121 145.518,65.7454 142,66.5C 139.637,66.4725 138.137,65.3059 137.5,63C 139.137,61.049 140.637,61.2157 142,63.5C 145.343,59.9904 148.843,56.657 152.5,53.5 Z"/></g>
<g><path style="opacity:1" fill="#2d2d2d" d="M 40.5,60.5 C 45.236,61.6348 49.9026,62.9681 54.5,64.5C 54.5742,68.1584 53.0742,70.825 50,72.5C 45.9446,71.5968 42.2779,69.9301 39,67.5C 39.4371,65.2433 39.9371,62.91 40.5,60.5 Z"/></g>
<g><path style="opacity:1" fill="#e4e4e4" d="M 41.5,64.5 C 44.8774,64.9595 48.2107,65.6261 51.5,66.5C 51.5,67.5 51.5,68.5 51.5,69.5C 48.4318,68.9782 45.4318,68.1449 42.5,67C 41.7476,66.3292 41.4142,65.4959 41.5,64.5 Z"/></g>
<g><path style="opacity:1" fill="#484848" d="M 160.5,66.5 C 162.346,66.2222 163.68,66.8888 164.5,68.5C 162.711,69.8772 160.711,70.8772 158.5,71.5C 157.571,70.3112 157.238,68.9778 157.5,67.5C 158.791,67.7373 159.791,67.404 160.5,66.5 Z"/></g>
<g><path style="opacity:1" fill="#343434" d="M 31.5,74.5 C 38.3321,75.1641 44.9987,76.3307 51.5,78C 50.7362,80.0693 50.2362,82.236 50,84.5C 45.8792,85.4075 41.7125,85.2408 37.5,84C 35.4732,82.6043 35.1398,80.9376 36.5,79C 33.0992,79.266 31.4326,77.766 31.5,74.5 Z"/></g>
<g><path style="opacity:1" fill="#373737" d="M 155.5,76.5 C 161.674,75.1729 163.841,77.5062 162,83.5C 160.989,84.3366 159.822,84.67 158.5,84.5C 158.36,82.8762 159.027,81.7096 160.5,81C 159.975,80.3076 159.308,79.8076 158.5,79.5C 156.988,80.9906 155.988,82.8239 155.5,85C 153.19,85.4966 150.857,85.6633 148.5,85.5C 146.149,80.8688 147.482,78.2022 152.5,77.5C 152.703,79.3904 152.037,80.8904 150.5,82C 153.492,83.0879 154.492,82.4213 153.5,80C 153.978,78.6974 154.645,77.5307 155.5,76.5 Z"/></g>
<g><path style="opacity:1" fill="#e5e5e5" d="M 38.5,78.5 C 41.7861,79.2071 45.1194,79.5405 48.5,79.5C 48.5,80.5 48.5,81.5 48.5,82.5C 45.1933,81.9492 41.8599,81.6159 38.5,81.5C 38.5,80.5 38.5,79.5 38.5,78.5 Z"/></g>
<g><path style="opacity:1" fill="#392121" d="M 122.5,81.5 C 123.167,82.1667 123.833,82.8333 124.5,83.5C 123.508,83.3284 122.842,83.6618 122.5,84.5C 119.125,83.7552 115.792,82.7552 112.5,81.5C 111.548,83.0453 111.215,84.712 111.5,86.5C 108.123,86.3103 105.456,84.8103 103.5,82C 102.167,81.8333 100.833,81.6667 99.5,81.5C 94.9383,82.7685 90.605,84.4351 86.5,86.5C 86.5,85.1667 86.5,83.8333 86.5,82.5C 83.0901,82.4571 79.7568,82.9571 76.5,84C 75.944,84.3826 75.6107,84.8826 75.5,85.5C 73.3023,85.5912 72.9689,84.9245 74.5,83.5C 80.9595,78.8747 86.6262,73.3747 91.5,67C 93.0672,65.9242 94.7338,65.0909 96.5,64.5C 99.1022,65.0545 101.769,65.2212 104.5,65C 110.07,71.0748 116.07,76.5748 122.5,81.5 Z"/></g>
<g><path style="opacity:1" fill="#e31c24" d="M 94.5,66.5 C 97.8281,67.6463 101.161,67.8129 104.5,67C 108.132,71.6337 112.132,75.967 116.5,80C 114.527,80.4955 112.527,80.6621 110.5,80.5C 110.762,81.9778 110.429,83.3112 109.5,84.5C 102.8,77.9206 96.1335,77.9206 89.5,84.5C 88.5713,83.3112 88.238,81.9778 88.5,80.5C 86.4727,80.6621 84.4727,80.4955 82.5,80C 86.6249,75.5624 90.6249,71.0624 94.5,66.5 Z"/></g>
<g><path style="opacity:1" fill="#e82528" d="M 122.5,84.5 C 122.5,84.8333 122.5,85.1667 122.5,85.5C 121.737,93.0345 118.404,99.0345 112.5,103.5C 112.167,103.5 111.833,103.5 111.5,103.5C 107.16,98.1612 102.827,92.8278 98.5,87.5C 95.6667,91.1667 92.8333,94.8333 90,98.5C 88.549,100.464 86.7157,101.797 84.5,102.5C 79.2017,98.9072 76.2017,93.9072 75.5,87.5C 75.5,86.8333 75.5,86.1667 75.5,85.5C 75.6107,84.8826 75.944,84.3826 76.5,84C 79.7568,82.9571 83.0901,82.4571 86.5,82.5C 86.5,83.8333 86.5,85.1667 86.5,86.5C 90.605,84.4351 94.9383,82.7685 99.5,81.5C 100.833,81.6667 102.167,81.8333 103.5,82C 105.456,84.8103 108.123,86.3103 111.5,86.5C 111.215,84.712 111.548,83.0453 112.5,81.5C 115.792,82.7552 119.125,83.7552 122.5,84.5 Z"/></g>
<g><path style="opacity:1" fill="#524f50" d="M 124.5,83.5 C 129.833,86.5 135.167,89.5 140.5,92.5C 140.672,93.4916 140.338,94.1583 139.5,94.5C 133.6,91.9315 127.933,88.9315 122.5,85.5C 122.5,85.1667 122.5,84.8333 122.5,84.5C 122.842,83.6618 123.508,83.3284 124.5,83.5 Z"/></g>
<g><path style="opacity:1" fill="#362323" d="M 111.5,103.5 C 110.833,103.5 110.5,103.833 110.5,104.5C 110.167,104.5 109.833,104.5 109.5,104.5C 105.85,99.8467 102.184,95.1801 98.5,90.5C 94.8096,95.1855 91.1429,99.8521 87.5,104.5C 85.8333,105.833 84.1667,107.167 82.5,108.5C 81.8333,108.5 81.5,108.167 81.5,107.5C 82.925,106.078 83.925,104.411 84.5,102.5C 86.7157,101.797 88.549,100.464 90,98.5C 92.8333,94.8333 95.6667,91.1667 98.5,87.5C 102.827,92.8278 107.16,98.1612 111.5,103.5 Z"/></g>
<g><path style="opacity:1" fill="#5c5858" d="M 74.5,83.5 C 72.9689,84.9245 73.3023,85.5912 75.5,85.5C 75.5,86.1667 75.5,86.8333 75.5,87.5C 74.8826,87.3893 74.3826,87.056 74,86.5C 68.9152,89.6262 63.7486,92.6262 58.5,95.5C 58.1667,95 57.8333,94.5 57.5,94C 62.8587,89.988 68.5253,86.488 74.5,83.5 Z"/></g>
<g><path style="opacity:1" fill="#ea2c2d" d="M 109.5,104.5 C 102.179,108.498 94.8456,108.498 87.5,104.5C 91.1429,99.8521 94.8096,95.1855 98.5,90.5C 102.184,95.1801 105.85,99.8467 109.5,104.5 Z"/></g>
<g><path style="opacity:1" fill="#b4b3b3" d="M 140.5,92.5 C 141.776,93.3864 141.776,94.3864 140.5,95.5C 139.893,95.3764 139.56,95.0431 139.5,94.5C 140.338,94.1583 140.672,93.4916 140.5,92.5 Z"/></g>
<g><path style="opacity:1" fill="#555252" d="M 81.5,107.5 C 81.5,108.167 81.8333,108.5 82.5,108.5C 78.3633,114.045 73.03,115.878 66.5,114C 63.1013,111.483 62.9347,108.983 66,106.5C 66.5,106.833 67,107.167 67.5,107.5C 65.7217,110.831 66.7217,112.498 70.5,112.5C 74.5863,111.621 78.2529,109.955 81.5,107.5 Z"/></g>
<g><path style="opacity:1" fill="#575454" d="M 111.5,103.5 C 111.833,103.5 112.167,103.5 112.5,103.5C 114.963,105.461 117.297,107.628 119.5,110C 122.614,111.931 125.947,112.598 129.5,112C 130.833,110.667 130.833,109.333 129.5,108C 131.679,105.918 133.013,106.418 133.5,109.5C 133.11,113.389 130.944,115.389 127,115.5C 120.067,113.952 114.567,110.286 110.5,104.5C 110.5,103.833 110.833,103.5 111.5,103.5 Z"/></g>
<g><path style="opacity:1" fill="#bcbbbb" d="M 93.5,116.5 C 93.5,117.5 93.5,118.5 93.5,119.5C 94.5,119.5 95.5,119.5 96.5,119.5C 95.4324,120.434 94.099,120.768 92.5,120.5C 92.2322,118.901 92.5655,117.568 93.5,116.5 Z"/></g>
<g><path style="opacity:1" fill="#302c2d" d="M 93.5,116.5 C 94.5,116.5 95.5,116.5 96.5,116.5C 96.5,117.5 96.5,118.5 96.5,119.5C 96.5,118.5 96.5,117.5 96.5,116.5C 95.5,116.5 94.5,116.5 93.5,116.5 Z"/></g>
<g><path style="opacity:1" fill="#747171" d="M 98.5,116.5 C 99.8333,116.5 101.167,116.5 102.5,116.5C 102.5,117.833 102.5,119.167 102.5,120.5C 101.167,120.5 99.8333,120.5 98.5,120.5C 98.5,119.167 98.5,117.833 98.5,116.5 Z"/></g>
<g><path style="opacity:1" fill="#949292" d="M 73.5,134.5 C 72.6739,129.684 72.1739,124.684 72,119.5C 71.8261,124.684 71.3261,129.684 70.5,134.5C 70.5,129.167 70.5,123.833 70.5,118.5C 71.5,118.5 72.5,118.5 73.5,118.5C 73.5,123.833 73.5,129.167 73.5,134.5 Z"/></g>
<g><path style="opacity:1" fill="#656262" d="M 123.5,119.5 C 123.56,118.957 123.893,118.624 124.5,118.5C 125.495,123.792 125.828,129.125 125.5,134.5C 124.833,129.5 124.167,124.5 123.5,119.5 Z"/></g>
<g><path style="opacity:1" fill="#545454" d="M 31.5,120.5 C 39.5398,120.52 40.0398,121.52 33,123.5C 31.9614,122.756 31.4614,121.756 31.5,120.5 Z"/></g>
<g><path style="opacity:1" fill="#484848" d="M 162.5,120.5 C 164.213,121.305 165.879,122.305 167.5,123.5C 165.955,124.452 164.288,124.785 162.5,124.5C 162.5,123.167 162.5,121.833 162.5,120.5 Z"/></g>
<g><path style="opacity:1" fill="#929292" d="M 35.5,124.5 C 36.675,124.281 37.675,124.614 38.5,125.5C 37.277,126.614 35.9437,126.781 34.5,126C 35.056,125.617 35.3893,125.117 35.5,124.5 Z"/></g>
<g><path style="opacity:1" fill="#535353" d="M 33.5,128.5 C 36.9103,128.384 38.2436,130.05 37.5,133.5C 32.7476,135.007 31.4143,133.34 33.5,128.5 Z"/></g>
<g><path style="opacity:1" fill="#434343" d="M 162.5,126.5 C 163.833,126.5 165.167,126.5 166.5,126.5C 166.465,132.024 164.799,132.691 161.5,128.5C 161.863,127.817 162.196,127.15 162.5,126.5 Z"/></g>
<g><path style="opacity:1" fill="#181717" d="M 73.5,134.5 C 90.1667,134.5 106.833,134.5 123.5,134.5C 123.5,129.5 123.5,124.5 123.5,119.5C 124.167,124.5 124.833,129.5 125.5,134.5C 127.833,134.5 130.167,134.5 132.5,134.5C 132.5,135.5 132.5,136.5 132.5,137.5C 110.5,137.5 88.5,137.5 66.5,137.5C 66.5,136.5 66.5,135.5 66.5,134.5C 67.8333,134.5 69.1667,134.5 70.5,134.5C 71.3261,129.684 71.8261,124.684 72,119.5C 72.1739,124.684 72.6739,129.684 73.5,134.5 Z"/></g>
<g><path style="opacity:1" fill="#636060" d="M 98.5,121.5 C 99.8333,121.5 101.167,121.5 102.5,121.5C 102.5,122.833 102.5,124.167 102.5,125.5C 101.167,125.5 99.8333,125.5 98.5,125.5C 98.5,124.167 98.5,122.833 98.5,121.5 Z"/></g>
<g><path style="opacity:1" fill="#2f2c2c" d="M 96.5,122.5 C 96.5,123.5 96.5,124.5 96.5,125.5C 95.5,125.5 94.5,125.5 93.5,125.5C 93.5,124.5 93.5,123.5 93.5,122.5C 94.5,122.5 95.5,122.5 96.5,122.5 Z"/></g>
<g><path style="opacity:1" fill="#bdbbbb" d="M 96.5,122.5 C 95.5,122.5 94.5,122.5 93.5,122.5C 93.5,123.5 93.5,124.5 93.5,125.5C 92.5655,124.432 92.2322,123.099 92.5,121.5C 94.099,121.232 95.4324,121.566 96.5,122.5 Z"/></g>
<g><path style="opacity:1" fill="#626262" d="M 161.5,132.5 C 163.179,132.892 164.846,133.392 166.5,134C 167.517,135.049 167.684,136.216 167,137.5C 165.097,137.694 163.263,137.694 161.5,137.5C 160.334,135.833 160.334,134.166 161.5,132.5 Z"/></g>
<g><path style="opacity:1" fill="#5a5a5a" d="M 35.5,135.5 C 37.3588,135.461 38.6921,136.294 39.5,138C 38.2845,140.096 37.4512,139.929 37,137.5C 35.7025,138.784 34.5358,138.617 33.5,137C 34.4158,136.722 35.0825,136.222 35.5,135.5 Z"/></g>
<g><path style="opacity:1" fill="#535353" d="M 38.5,140.5 C 40.1033,140.312 41.4366,140.812 42.5,142C 40.9878,143.727 39.3211,144.893 37.5,145.5C 36.3482,143.603 36.6815,141.936 38.5,140.5 Z"/></g>
<g><path style="opacity:1" fill="#5f5f5f" d="M 159.5,139.5 C 163.84,139.854 164.673,141.854 162,145.5C 157.403,144.79 156.569,142.79 159.5,139.5 Z"/></g>
<g><path style="opacity:1" fill="#4d4d4d" d="M 98.5,150.5 C 97.6909,148.708 97.1909,146.708 97,144.5C 96.8091,146.708 96.3091,148.708 95.5,150.5C 94.3775,148.712 94.2109,146.712 95,144.5C 96.0113,143.663 97.1779,143.33 98.5,143.5C 98.5,145.833 98.5,148.167 98.5,150.5 Z"/></g>
<g><path style="opacity:1" fill="#727272" d="M 90.5,143.5 C 91.5,143.5 92.5,143.5 93.5,143.5C 92.9475,145.939 92.9475,148.273 93.5,150.5C 89.06,151.759 88.3934,150.592 91.5,147C 89.273,146.296 88.9397,145.129 90.5,143.5 Z"/></g>
<g><path style="opacity:1" fill="#727272" d="M 100.5,143.5 C 101.5,143.5 102.5,143.5 103.5,143.5C 102.947,145.939 102.947,148.273 103.5,150.5C 99.06,151.759 98.3934,150.592 101.5,147C 99.273,146.296 98.9397,145.129 100.5,143.5 Z"/></g>
<g><path style="opacity:1" fill="#454545" d="M 156.5,145.5 C 159.764,145.726 160.764,147.226 159.5,150C 158.207,150.49 156.873,150.657 155.5,150.5C 155.366,148.708 155.699,147.042 156.5,145.5 Z"/></g>
<g><path style="opacity:1" fill="#7e7e7e" d="M 106.5,143.5 C 107.391,145.291 108.391,147.124 109.5,149C 107.675,151.985 106.009,151.652 104.5,148C 105.044,146.415 105.711,144.915 106.5,143.5 Z"/></g>
<g><path style="opacity:1" fill="#b6b6b6" d="M 98.5,150.5 C 97.5,151.833 96.5,151.833 95.5,150.5C 96.3091,148.708 96.8091,146.708 97,144.5C 97.1909,146.708 97.6909,148.708 98.5,150.5 Z"/></g>
<g><path style="opacity:1" fill="#464646" d="M 42.5,149.5 C 44.4843,150.961 46.4843,151.627 48.5,151.5C 47.0552,153.063 45.3885,154.396 43.5,155.5C 41.261,153.867 40.9277,151.867 42.5,149.5 Z"/></g>
<g><path style="opacity:1" fill="#636363" d="M 153.5,150.5 C 154.472,151.868 155.472,153.368 156.5,155C 156,155.5 155.5,156 155,156.5C 153.926,155.382 152.76,154.382 151.5,153.5C 152.193,152.482 152.859,151.482 153.5,150.5 Z"/></g>
<g><path style="opacity:1" fill="#777777" d="M 48.5,153.5 C 51.1247,154.466 51.1247,155.466 48.5,156.5C 47.4376,155.575 47.4376,154.575 48.5,153.5 Z"/></g>
<g><path style="opacity:1" fill="#535353" d="M 50.5,156.5 C 52.3588,156.461 53.6921,157.294 54.5,159C 53.0686,160.562 51.5686,162.062 50,163.5C 48.9783,162.646 48.1449,161.646 47.5,160.5C 48.5244,159.148 49.5244,157.815 50.5,156.5 Z"/></g>
<g><path style="opacity:1" fill="#565656" d="M 147.5,155.5 C 150.703,155.32 152.536,156.654 153,159.5C 150.089,160.099 148.256,158.765 147.5,155.5 Z"/></g>
<g><path style="opacity:1" fill="#979797" d="M 147.5,160.5 C 146.5,160.5 145.5,160.5 144.5,160.5C 144.5,161.5 144.5,162.5 144.5,163.5C 143.212,161.965 143.212,160.299 144.5,158.5C 145.739,158.942 146.739,159.609 147.5,160.5 Z"/></g>
<g><path style="opacity:1" fill="#414141" d="M 147.5,160.5 C 150.478,162.543 150.145,163.876 146.5,164.5C 145.584,164.457 144.917,164.124 144.5,163.5C 144.5,162.5 144.5,161.5 144.5,160.5C 145.5,160.5 146.5,160.5 147.5,160.5 Z"/></g>
<g><path style="opacity:1" fill="#727272" d="M 140.5,161.5 C 143.285,165.449 142.952,165.949 139.5,163C 140.056,162.617 140.389,162.117 140.5,161.5 Z"/></g>
<g><path style="opacity:1" fill="#525252" d="M 56.5,160.5 C 57.6129,161.946 57.7796,163.613 57,165.5C 56.6667,165.167 56.3333,164.833 56,164.5C 55.3376,168.353 54.5043,168.353 53.5,164.5C 53.7867,162.557 54.7867,161.223 56.5,160.5 Z"/></g>
<g><path style="opacity:1" fill="#4d4d4d" d="M 58.5,165.5 C 60.3464,165.222 61.6798,165.889 62.5,167.5C 61.7261,168.711 60.8928,168.711 60,167.5C 59.6924,168.308 59.1924,168.975 58.5,169.5C 57.7084,168.3 57.7084,166.967 58.5,165.5 Z"/></g>
<g><path style="opacity:1" fill="#595959" d="M 135.5,164.5 C 137.886,165.373 139.886,166.873 141.5,169C 140.725,170.23 139.725,170.563 138.5,170C 137.242,168.259 136.242,166.426 135.5,164.5 Z"/></g>
<g><path style="opacity:1" fill="#565656" d="M 63.5,168.5 C 64.8333,168.5 66.1667,168.5 67.5,168.5C 67.9899,170.948 67.1566,172.615 65,173.5C 62.3894,172.5 61.8894,170.833 63.5,168.5 Z"/></g>
<g><path style="opacity:1" fill="#525252" d="M 74.5,170.5 C 76.3117,170.771 77.9783,171.438 79.5,172.5C 77.638,174.18 75.8046,175.847 74,177.5C 72.6605,175.234 72.8271,172.901 74.5,170.5 Z"/></g>
<g><path style="opacity:1" fill="#505050" d="M 127.5,168.5 C 132.754,169.942 133.421,172.275 129.5,175.5C 127.988,174.009 126.988,172.176 126.5,170C 127.056,169.617 127.389,169.117 127.5,168.5 Z"/></g>
<g><path style="opacity:1" fill="#787878" d="M 112.5,172.5 C 114.301,173.719 115.301,175.552 115.5,178C 115.167,178.5 114.833,179 114.5,179.5C 113.585,178.672 112.919,177.672 112.5,176.5C 113.363,175.274 113.363,173.94 112.5,172.5 Z"/></g>
<g><path style="opacity:1" fill="#838383" d="M 117.5,174.5 C 118.947,173.115 119.947,173.448 120.5,175.5C 119.391,175.443 118.391,175.11 117.5,174.5 Z"/></g>
<g><path style="opacity:1" fill="#4d4d4d" d="M 80.5,173.5 C 81.766,174.09 83.0993,174.59 84.5,175C 80.4944,180.108 79.1611,179.608 80.5,173.5 Z"/></g>
<g><path style="opacity:1" fill="#464646" d="M 106.5,175.5 C 107.833,175.5 109.167,175.5 110.5,175.5C 110.33,176.822 110.663,177.989 111.5,179C 109.128,181.155 107.128,180.822 105.5,178C 106.252,177.329 106.586,176.496 106.5,175.5 Z"/></g>
<g><path style="opacity:1" fill="#5b5b5b" d="M 86.5,175.5 C 87.8333,175.5 89.1667,175.5 90.5,175.5C 90.9899,177.948 90.1566,179.615 88,180.5C 85.3894,179.5 84.8894,177.833 86.5,175.5 Z"/></g>
<g><path style="opacity:1" fill="#494949" d="M 92.5,175.5 C 96.9949,175.794 98.1615,177.794 96,181.5C 95.7167,178.258 94.8834,177.924 93.5,180.5C 92.5481,178.955 92.2148,177.288 92.5,175.5 Z"/></g>
<g><path style="opacity:1" fill="#575757" d="M 101.5,175.5 C 102.947,176.622 103.947,178.122 104.5,180C 102.152,183.188 100.485,182.688 99.5,178.5C 99.9424,177.261 100.609,176.261 101.5,175.5 Z"/></g>
<g><path style="opacity:1" fill="#4f4f4f" d="M 117.5,174.5 C 118.391,175.11 119.391,175.443 120.5,175.5C 121.404,176.209 121.737,177.209 121.5,178.5C 120.167,178.5 118.833,178.5 117.5,178.5C 117.5,177.167 117.5,175.833 117.5,174.5 Z"/></g>
</svg>
